<mxfile host="app.diagrams.net" agent="Mozilla/5.0 (Windows NT 10.0; Win64; x64; rv:135.0) Gecko/20100101 Firefox/135.0" version="26.0.12">
  <diagram name="Page-1" id="e_rNcnIGrn5cpi9299Yu">
    <mxGraphModel dx="1050" dy="655" grid="1" gridSize="10" guides="1" tooltips="1" connect="1" arrows="1" fold="1" page="1" pageScale="1" pageWidth="827" pageHeight="1169" math="0" shadow="0">
      <root>
        <mxCell id="0" />
        <mxCell id="1" parent="0" />
        <mxCell id="9P4O5lqwGNktBoMZYdDR-1" value="Class SORDER01" style="whiteSpace=wrap;html=1;aspect=fixed;" parent="1" vertex="1">
          <mxGeometry x="100" y="100" width="130" height="130" as="geometry" />
        </mxCell>
        <mxCell id="9P4O5lqwGNktBoMZYdDR-2" value="SORDER LINE" style="whiteSpace=wrap;html=1;aspect=fixed;" parent="1" vertex="1">
          <mxGeometry x="147.5" y="320" width="100" height="100" as="geometry" />
        </mxCell>
        <mxCell id="9P4O5lqwGNktBoMZYdDR-3" value="SORDER LINE" style="whiteSpace=wrap;html=1;aspect=fixed;" parent="1" vertex="1">
          <mxGeometry x="150" y="460" width="100" height="100" as="geometry" />
        </mxCell>
        <mxCell id="9P4O5lqwGNktBoMZYdDR-17" value="" style="endArrow=classic;html=1;rounded=0;dashed=1;exitX=1;exitY=0.5;exitDx=0;exitDy=0;" parent="1" source="9P4O5lqwGNktBoMZYdDR-1" edge="1">
          <mxGeometry width="50" height="50" relative="1" as="geometry">
            <mxPoint x="210" y="170" as="sourcePoint" />
            <mxPoint x="350" y="90" as="targetPoint" />
          </mxGeometry>
        </mxCell>
        <mxCell id="9P4O5lqwGNktBoMZYdDR-18" value="" style="endArrow=classic;html=1;rounded=0;exitX=0.5;exitY=1;exitDx=0;exitDy=0;entryX=0.25;entryY=0;entryDx=0;entryDy=0;" parent="1" source="9P4O5lqwGNktBoMZYdDR-1" target="9P4O5lqwGNktBoMZYdDR-2" edge="1">
          <mxGeometry width="50" height="50" relative="1" as="geometry">
            <mxPoint x="100" y="272" as="sourcePoint" />
            <mxPoint x="150" y="300" as="targetPoint" />
          </mxGeometry>
        </mxCell>
        <mxCell id="9P4O5lqwGNktBoMZYdDR-19" value="AINF= Information partagée par toutes les instances d&#39;une même classe&lt;br&gt;=&amp;gt; Pilotage du comportement AREAD (BEFORE)/AINIT/ACONTROL pour toutes les instances d&#39;une même classe." style="text;html=1;align=center;verticalAlign=middle;whiteSpace=wrap;rounded=0;" parent="1" vertex="1">
          <mxGeometry x="490" y="10" width="390" height="80" as="geometry" />
        </mxCell>
        <mxCell id="9P4O5lqwGNktBoMZYdDR-20" value="1..n" style="text;html=1;align=center;verticalAlign=middle;whiteSpace=wrap;rounded=0;" parent="1" vertex="1">
          <mxGeometry x="170" y="240" width="60" height="30" as="geometry" />
        </mxCell>
        <mxCell id="9P4O5lqwGNktBoMZYdDR-21" value="" style="endArrow=classic;html=1;rounded=0;exitX=0.25;exitY=1;exitDx=0;exitDy=0;entryX=0;entryY=0.25;entryDx=0;entryDy=0;" parent="1" target="9P4O5lqwGNktBoMZYdDR-3" edge="1">
          <mxGeometry width="50" height="50" relative="1" as="geometry">
            <mxPoint x="120" y="210" as="sourcePoint" />
            <mxPoint x="120" y="440" as="targetPoint" />
            <Array as="points">
              <mxPoint x="120" y="440" />
            </Array>
          </mxGeometry>
        </mxCell>
        <mxCell id="9P4O5lqwGNktBoMZYdDR-22" value="0..n" style="text;html=1;align=center;verticalAlign=middle;whiteSpace=wrap;rounded=0;" parent="1" vertex="1">
          <mxGeometry x="50" y="280" width="60" height="30" as="geometry" />
        </mxCell>
        <mxCell id="9P4O5lqwGNktBoMZYdDR-25" value="SORDER LINE&lt;br&gt;DET" style="whiteSpace=wrap;html=1;aspect=fixed;" parent="1" vertex="1">
          <mxGeometry x="310" y="310" width="100" height="100" as="geometry" />
        </mxCell>
        <mxCell id="9P4O5lqwGNktBoMZYdDR-28" value="" style="endArrow=classic;html=1;rounded=0;exitX=0.5;exitY=1;exitDx=0;exitDy=0;entryX=0;entryY=0.5;entryDx=0;entryDy=0;" parent="1" target="9P4O5lqwGNktBoMZYdDR-25" edge="1">
          <mxGeometry width="50" height="50" relative="1" as="geometry">
            <mxPoint x="247.5" y="360" as="sourcePoint" />
            <mxPoint x="255.5" y="450" as="targetPoint" />
          </mxGeometry>
        </mxCell>
        <mxCell id="9P4O5lqwGNktBoMZYdDR-29" value="" style="endArrow=classic;html=1;rounded=0;exitX=0.925;exitY=0;exitDx=0;exitDy=0;entryX=0;entryY=0.5;entryDx=0;entryDy=0;dashed=1;exitPerimeter=0;" parent="1" source="9P4O5lqwGNktBoMZYdDR-2" target="9P4O5lqwGNktBoMZYdDR-38" edge="1">
          <mxGeometry width="50" height="50" relative="1" as="geometry">
            <mxPoint x="245" y="300" as="sourcePoint" />
            <mxPoint x="330" y="180" as="targetPoint" />
          </mxGeometry>
        </mxCell>
        <mxCell id="9P4O5lqwGNktBoMZYdDR-30" value="" style="endArrow=classic;html=1;rounded=0;exitX=0.34;exitY=-0.016;exitDx=0;exitDy=0;entryX=0.5;entryY=1;entryDx=0;entryDy=0;dashed=1;exitPerimeter=0;" parent="1" source="9P4O5lqwGNktBoMZYdDR-25" target="9P4O5lqwGNktBoMZYdDR-48" edge="1">
          <mxGeometry width="50" height="50" relative="1" as="geometry">
            <mxPoint x="405.25" y="300" as="sourcePoint" />
            <mxPoint x="470" y="210" as="targetPoint" />
          </mxGeometry>
        </mxCell>
        <mxCell id="9P4O5lqwGNktBoMZYdDR-32" value="1..n" style="text;html=1;align=center;verticalAlign=middle;whiteSpace=wrap;rounded=0;" parent="1" vertex="1">
          <mxGeometry x="247.5" y="320" width="60" height="30" as="geometry" />
        </mxCell>
        <mxCell id="9P4O5lqwGNktBoMZYdDR-33" value="AINF" style="rounded=0;whiteSpace=wrap;html=1;fillColor=#f8cecc;strokeColor=#b85450;" parent="1" vertex="1">
          <mxGeometry x="354" y="70" width="46" height="40" as="geometry" />
        </mxCell>
        <mxCell id="9P4O5lqwGNktBoMZYdDR-34" value="Class AINFO" style="text;html=1;align=center;verticalAlign=middle;whiteSpace=wrap;rounded=0;" parent="1" vertex="1">
          <mxGeometry x="347" y="30" width="60" height="30" as="geometry" />
        </mxCell>
        <mxCell id="9P4O5lqwGNktBoMZYdDR-36" value="Class SORDER02" style="whiteSpace=wrap;html=1;aspect=fixed;" parent="1" vertex="1">
          <mxGeometry x="570" y="100" width="130" height="130" as="geometry" />
        </mxCell>
        <mxCell id="9P4O5lqwGNktBoMZYdDR-37" value="" style="endArrow=classic;html=1;rounded=0;exitX=0;exitY=0.385;exitDx=0;exitDy=0;exitPerimeter=0;entryX=1;entryY=0.5;entryDx=0;entryDy=0;dashed=1;" parent="1" source="9P4O5lqwGNktBoMZYdDR-36" target="9P4O5lqwGNktBoMZYdDR-33" edge="1">
          <mxGeometry width="50" height="50" relative="1" as="geometry">
            <mxPoint x="490" y="155" as="sourcePoint" />
            <mxPoint x="540" y="105" as="targetPoint" />
          </mxGeometry>
        </mxCell>
        <mxCell id="9P4O5lqwGNktBoMZYdDR-38" value="AINF" style="rounded=0;whiteSpace=wrap;html=1;fillColor=#f8cecc;strokeColor=#b85450;" parent="1" vertex="1">
          <mxGeometry x="354" y="160" width="46" height="40" as="geometry" />
        </mxCell>
        <mxCell id="9P4O5lqwGNktBoMZYdDR-39" value="" style="endArrow=classic;html=1;rounded=0;entryX=1;entryY=0.5;entryDx=0;entryDy=0;dashed=1;exitX=0;exitY=0.25;exitDx=0;exitDy=0;" parent="1" source="9P4O5lqwGNktBoMZYdDR-40" target="9P4O5lqwGNktBoMZYdDR-38" edge="1">
          <mxGeometry width="50" height="50" relative="1" as="geometry">
            <mxPoint x="560" y="300" as="sourcePoint" />
            <mxPoint x="514" y="195" as="targetPoint" />
          </mxGeometry>
        </mxCell>
        <mxCell id="9P4O5lqwGNktBoMZYdDR-40" value="SORDER02 LINE" style="whiteSpace=wrap;html=1;aspect=fixed;" parent="1" vertex="1">
          <mxGeometry x="597.5" y="330" width="100" height="100" as="geometry" />
        </mxCell>
        <mxCell id="9P4O5lqwGNktBoMZYdDR-41" value="SORDER02 LINE" style="whiteSpace=wrap;html=1;aspect=fixed;" parent="1" vertex="1">
          <mxGeometry x="600" y="470" width="100" height="100" as="geometry" />
        </mxCell>
        <mxCell id="9P4O5lqwGNktBoMZYdDR-42" value="" style="endArrow=classic;html=1;rounded=0;exitX=0.5;exitY=1;exitDx=0;exitDy=0;entryX=0.25;entryY=0;entryDx=0;entryDy=0;" parent="1" target="9P4O5lqwGNktBoMZYdDR-40" edge="1">
          <mxGeometry width="50" height="50" relative="1" as="geometry">
            <mxPoint x="615" y="240" as="sourcePoint" />
            <mxPoint x="600" y="310" as="targetPoint" />
          </mxGeometry>
        </mxCell>
        <mxCell id="9P4O5lqwGNktBoMZYdDR-43" value="1..n" style="text;html=1;align=center;verticalAlign=middle;whiteSpace=wrap;rounded=0;" parent="1" vertex="1">
          <mxGeometry x="620" y="250" width="60" height="30" as="geometry" />
        </mxCell>
        <mxCell id="9P4O5lqwGNktBoMZYdDR-44" value="" style="endArrow=classic;html=1;rounded=0;exitX=0.25;exitY=1;exitDx=0;exitDy=0;entryX=0;entryY=0.25;entryDx=0;entryDy=0;" parent="1" target="9P4O5lqwGNktBoMZYdDR-41" edge="1">
          <mxGeometry width="50" height="50" relative="1" as="geometry">
            <mxPoint x="570" y="220" as="sourcePoint" />
            <mxPoint x="570" y="450" as="targetPoint" />
            <Array as="points">
              <mxPoint x="570" y="450" />
            </Array>
          </mxGeometry>
        </mxCell>
        <mxCell id="9P4O5lqwGNktBoMZYdDR-45" value="SORDER02 LINE&lt;br&gt;DET" style="whiteSpace=wrap;html=1;aspect=fixed;" parent="1" vertex="1">
          <mxGeometry x="760" y="320" width="100" height="100" as="geometry" />
        </mxCell>
        <mxCell id="9P4O5lqwGNktBoMZYdDR-46" value="" style="endArrow=classic;html=1;rounded=0;exitX=0.5;exitY=1;exitDx=0;exitDy=0;entryX=0;entryY=0.5;entryDx=0;entryDy=0;" parent="1" target="9P4O5lqwGNktBoMZYdDR-45" edge="1">
          <mxGeometry width="50" height="50" relative="1" as="geometry">
            <mxPoint x="697.5" y="370" as="sourcePoint" />
            <mxPoint x="705.5" y="460" as="targetPoint" />
          </mxGeometry>
        </mxCell>
        <mxCell id="9P4O5lqwGNktBoMZYdDR-47" value="1..n" style="text;html=1;align=center;verticalAlign=middle;whiteSpace=wrap;rounded=0;" parent="1" vertex="1">
          <mxGeometry x="697.5" y="330" width="60" height="30" as="geometry" />
        </mxCell>
        <mxCell id="9P4O5lqwGNktBoMZYdDR-48" value="AINF" style="rounded=0;whiteSpace=wrap;html=1;fillColor=#f8cecc;strokeColor=#b85450;" parent="1" vertex="1">
          <mxGeometry x="354" y="220" width="46" height="40" as="geometry" />
        </mxCell>
        <mxCell id="9P4O5lqwGNktBoMZYdDR-49" value="" style="endArrow=classic;html=1;rounded=0;exitX=0.004;exitY=0.86;exitDx=0;exitDy=0;entryX=1;entryY=1;entryDx=0;entryDy=0;dashed=1;exitPerimeter=0;" parent="1" source="9P4O5lqwGNktBoMZYdDR-45" target="9P4O5lqwGNktBoMZYdDR-48" edge="1">
          <mxGeometry width="50" height="50" relative="1" as="geometry">
            <mxPoint x="478.25" y="330" as="sourcePoint" />
            <mxPoint x="450" y="290" as="targetPoint" />
            <Array as="points">
              <mxPoint x="480" y="400" />
            </Array>
          </mxGeometry>
        </mxCell>
        <mxCell id="9P4O5lqwGNktBoMZYdDR-51" value="TEC" style="rounded=0;whiteSpace=wrap;html=1;fillColor=#dae8fc;strokeColor=#6c8ebf;" parent="1" vertex="1">
          <mxGeometry x="160" y="110" width="60" height="30" as="geometry" />
        </mxCell>
        <mxCell id="9P4O5lqwGNktBoMZYdDR-52" value="TEC" style="rounded=0;whiteSpace=wrap;html=1;fillColor=#dae8fc;strokeColor=#6c8ebf;" parent="1" vertex="1">
          <mxGeometry x="187.5" y="320" width="60" height="30" as="geometry" />
        </mxCell>
        <mxCell id="9P4O5lqwGNktBoMZYdDR-53" value="TEC" style="rounded=0;whiteSpace=wrap;html=1;fillColor=#dae8fc;strokeColor=#6c8ebf;" parent="1" vertex="1">
          <mxGeometry x="190" y="460" width="60" height="30" as="geometry" />
        </mxCell>
      </root>
    </mxGraphModel>
  </diagram>
</mxfile>
